<svg width="30" height="30" viewBox="0 0 30 30" fill="none" xmlns="http://www.w3.org/2000/svg">
<g clip-path="url(#clip0_1_26)">
<path d="M23.6842 0H6.31579C2.83421 0 0 2.81054 0 6.26305V28.8335C0 29.2719 0.244737 29.679 0.639474 29.8747C0.813158 29.9609 0.994737 30.0078 1.18421 30.0078C1.42895 30.0078 1.66579 29.9374 1.87105 29.7886L7.05789 26.1013C7.28684 25.9368 8.06842 25.4671 8.67632 25.4671H23.6842C27.1658 25.4671 30 22.6566 30 19.2041V6.26305C30 2.81054 27.1658 0 23.6842 0ZM27.6316 19.2041C27.6316 21.3648 25.8632 23.1185 23.6842 23.1185H8.67632C7.19211 23.1185 5.81053 24.0892 5.67632 24.191L2.36842 26.5397V6.26305C2.36842 4.1023 4.13684 2.34864 6.31579 2.34864H23.6842C25.8632 2.34864 27.6316 4.1023 27.6316 6.26305V19.2041Z" fill="white"/>
<path d="M18.8289 11.2187H16.1842V8.59604C16.1842 7.94625 15.6553 7.42172 15 7.42172C14.3447 7.42172 13.8158 7.94625 13.8158 8.59604V11.2187H11.1711C10.5158 11.2187 9.98684 11.7432 9.98684 12.393C9.98684 13.0428 10.5158 13.5673 11.1711 13.5673H13.8158V16.19C13.8158 16.8398 14.3447 17.3643 15 17.3643C15.6553 17.3643 16.1842 16.8398 16.1842 16.19V13.5673H18.8289C19.4842 13.5673 20.0132 13.0428 20.0132 12.393C20.0132 11.7432 19.4842 11.2187 18.8289 11.2187Z" fill="white"/>
</g>
<defs>
<clipPath id="clip0_1_26">
<rect width="30" height="30" fill="white"/>
</clipPath>
</defs>
</svg>
