<?xml version="1.0" encoding="UTF-8"?>
<svg viewBox="0 0 500 500" xmlns="http://www.w3.org/2000/svg">
 <path d="m316.66 307.19 69.825 52.646-38.452-91.648 100.77 22.913-59.668-51.551h111.38l-103.42-31.505 91.491-39.991-77.039-16.125 39.925-49.35-62.916 9.2202 23.125-62.704-59.973 38.897-14.097-57.781-42.628 51.785c0-3.5969-25.021-51.051-26.347-51.051s-25.789 50.085-25.789 50.085l-44.645-46.255-11.205 54.416-41.821-46.592s-0.91446 52.052-3.566 52.052-63.328-32.271-63.328-32.271 14.559 59.281 14.559 60.713-65.834-10.326-65.834-10.326l54.218 42.761-57.454 19.513s48.159 36.207 46.833 37.639-42.576 37.824-42.576 37.824 73.524-1.7913 72.198-1.7913c-0.14595 1.199-70.301 54.543-70.301 55.975s76.335-19.082 76.335-19.082l-51.434 74.533 85.762-60.446-18.125 65.603 50.532-41.189 2.8108 44.053 49.074-39.525 35.495 157.98 12.676-156.28 35.338 26.905 8.2732-50.05z" fill-opacity=".5" fill-rule="evenodd"/>
 <path d="m299.15 289.39 69.825 52.646-38.452-91.648 100.77 22.913-59.668-51.551h111.38l-103.42-31.505 91.491-39.991-77.039-16.125 39.925-49.35-62.916 9.2202 23.125-62.704-59.973 38.897-14.097-57.781-42.628 51.785c0-3.5968-25.021-51.051-26.347-51.051s-25.789 50.085-25.789 50.085l-44.645-46.255-11.205 54.416-41.821-46.592s-0.91446 52.052-3.566 52.052-63.328-32.271-63.328-32.271 14.559 59.281 14.559 60.713-65.834-10.326-65.834-10.326l54.218 42.761-57.454 19.513s48.159 36.207 46.833 37.639-42.576 37.824-42.576 37.824 73.524-1.7913 72.198-1.7913c-0.14596 1.199-70.301 54.543-70.301 55.975s76.335-19.082 76.335-19.082l-51.434 74.533 85.762-60.446-18.125 65.603 50.532-41.189 2.8108 44.053 49.074-39.525 35.495 157.98 12.676-156.28 35.338 26.905 8.2732-50.05z" fill="#fff" fill-rule="evenodd" stroke="#000" stroke-linejoin="round" stroke-width="10"/>
</svg>
