<?xml version="1.0" encoding="utf-8"?>
<!-- Svg Vector Icons : http://www.onlinewebfonts.com/icon -->
<!DOCTYPE svg PUBLIC "-//W3C//DTD SVG 1.1//EN" "http://www.w3.org/Graphics/SVG/1.1/DTD/svg11.dtd">
<svg version="1.1" xmlns="http://www.w3.org/2000/svg" xmlns:xlink="http://www.w3.org/1999/xlink" x="0px" y="0px" viewBox="0 0 1000 1000" enable-background="new 0 0 1000 1000" xml:space="preserve">
<metadata> Svg Vector Icons : http://www.onlinewebfonts.com/icon </metadata>
<g><g transform="translate(0.000000,511.000000) scale(0.100000,-0.100000)"><path d="M3327.8,5005.2c-133.9-6.5-341.4-34.6-462.3-60.5C1417.9,4635.7,339.8,3482,121.6,2006.4c-30.2-211.7-28.1-1467,2.2-1683C292.3-819.5,983.7-1770.1,2022.9-2292.9c326.2-162,633-259.3,1067.3-332.7l79.9-15.1v-849.1v-849.1l67-134c114.5-229,317.6-339.2,585.5-321.9c250.6,15.1,244.1,10.8,1270.4,1114.8l939.8,1013.3l410.5,13c622.2,19.5,1015.4,108,1495.1,339.2c989.5,475.3,1667.9,1330.8,1914.2,2415.4c45.4,196.6,47.5,261.4,47.5,1073.8c0,823.1-2.1,875-49.7,1091c-73.5,330.5-162,581.2-306.8,875c-481.8,967.9-1391.4,1642-2462.9,1827.8c-231.2,41-360.8,43.2-1879.6,47.5C4304.3,5018.1,3459.6,5013.8,3327.8,5005.2z M7102.2,4346.2C8210.5,4071.9,8996.9,3263.8,9254,2136.1c54-237.7,69.1-1451.9,21.6-1763C9094.1-832.5,8156.5-1785.2,6940.1-2001.3c-118.8-21.6-386.7-41.1-687-47.5l-490.4-13l-989.5-1063l-987.3-1065.1l-6.5,1065.1l-4.3,1063l-254.9,15.1c-525,30.3-872.8,118.8-1274.7,326.3C1474.1-1325,942.6-625,756.8,241.3c-32.4,151.2-38.9,291.7-38.9,944.1c0,760.5,0,769.1,58.3,993.8c146.9,579,371.6,980.9,773.4,1382.7c449.4,451.5,993.8,725.9,1618.2,818.8c67,10.8,937.6,17.3,1935.8,15.1C6868.8,4391.6,6922.9,4389.4,7102.2,4346.2z"/></g></g>
</svg>