<svg width="26" height="23" viewBox="0 0 26 23" fill="none" xmlns="http://www.w3.org/2000/svg">
<g clip-path="url(#clip0_4_293)">
<path d="M25.0719 21.1057H14.1942L17.783 17.4439L23.7911 11.3135C24.5769 10.5117 25.01 9.44476 25.01 8.30833C25.01 7.1719 24.5769 6.10493 23.7911 5.30311L19.8125 1.24355C18.1852 -0.416896 15.5431 -0.416896 13.9158 1.24355L7.9386 7.34237L1.21894 14.1988C0.433127 15.0006 0 16.0676 0 17.204C0 18.3404 0.433127 19.4074 1.21894 20.2092L3.68158 22.722C3.85483 22.8988 4.08996 22.9998 4.33746 22.9998H25.0719C25.5854 22.9998 26 22.5768 26 22.0528C26 21.5287 25.5854 21.1057 25.0719 21.1057ZM15.2275 2.58201C16.1309 1.66024 17.5973 1.66024 18.4945 2.58201L22.4731 6.64157C22.9124 7.08983 23.1475 7.67698 23.1475 8.30833C23.1475 8.93968 22.9062 9.53314 22.4731 9.97509L17.1271 15.4299L9.90623 8.01159L15.2275 2.58201ZM4.72109 21.1057L2.5307 18.8708C2.09139 18.4225 1.85626 17.8354 1.85626 17.204C1.85626 16.5727 2.09757 15.9792 2.5307 15.5373L8.58829 9.35637L15.8091 16.7747L11.5645 21.1057H4.72109Z" fill="white"/>
</g>
<defs>
<clipPath id="clip0_4_293">
<rect width="26" height="23" fill="white"/>
</clipPath>
</defs>
</svg>
