<svg width="21" height="21" viewBox="0 0 21 21" fill="none" xmlns="http://www.w3.org/2000/svg">
<g clip-path="url(#clip0_4_295)">
<path d="M11.9502 10.5L20.6924 1.79285C21.0934 1.39675 21.1068 0.736593 20.7258 0.319651C20.3449 -0.0972918 19.7099 -0.11119 19.3089 0.284905L10.4999 9.05459L1.69751 0.291855C1.2965 -0.11119 0.66155 -0.0972918 0.280582 0.319651C-0.100385 0.736593 -0.0870177 1.39675 0.314001 1.79285L9.04952 10.5L0.307317 19.2002C-0.0937014 19.5963 -0.107069 20.2564 0.273899 20.6734C0.467724 20.8888 0.73507 20.993 0.995732 20.993C1.24303 20.993 1.497 20.8958 1.69083 20.7012L10.4932 11.9384L19.2955 20.7012C19.4894 20.8958 19.7367 20.993 19.9906 20.993C20.2513 20.993 20.5186 20.8888 20.7125 20.6734C21.0934 20.2564 21.0801 19.5963 20.6791 19.2002L11.9369 10.5H11.9502Z" fill="white"/>
</g>
<defs>
<clipPath id="clip0_4_295">
<rect width="21" height="21" fill="white"/>
</clipPath>
</defs>
</svg>
