<svg width="29" height="26" viewBox="0 0 29 26" fill="none" xmlns="http://www.w3.org/2000/svg">
<g clip-path="url(#clip0_4_270)">
<path d="M27.9949 5.31818H20.1017V2.46409C20.1017 1.105 18.8487 0 17.3075 0H11.4982C9.95702 0 8.70402 1.105 8.70402 2.46409V5.31818H1.00508C0.448937 5.31818 0 5.71409 0 6.20455C0 6.695 0.448937 7.09091 1.00508 7.09091H4.02033V22.1709C4.02033 24.2805 5.97019 26 8.36229 26H20.4501C22.8422 26 24.7921 24.2805 24.7921 22.1709V7.09091H27.9949C28.5511 7.09091 29 6.695 29 6.20455C29 5.71409 28.5511 5.31818 27.9949 5.31818ZM10.7209 2.46409C10.7209 2.08591 11.0693 1.77273 11.5049 1.77273H17.3142C17.7431 1.77273 18.0982 2.08 18.0982 2.46409V5.31818H10.7276V2.46409H10.7209ZM22.7819 22.1709C22.7819 23.3055 21.7366 24.2273 20.4501 24.2273H8.36229C7.07579 24.2273 6.0305 23.3055 6.0305 22.1709V7.09091H22.7819V22.1709Z" fill="white"/>
<path d="M11.0559 19.5C11.6121 19.5 12.061 19.1041 12.061 18.6136V12.1136C12.061 11.6232 11.6121 11.2273 11.0559 11.2273C10.4998 11.2273 10.0508 11.6232 10.0508 12.1136V18.6136C10.0508 19.1041 10.4998 19.5 11.0559 19.5Z" fill="white"/>
<path d="M17.7565 19.5C18.3126 19.5 18.7615 19.1041 18.7615 18.6136V12.1136C18.7615 11.6232 18.3126 11.2273 17.7565 11.2273C17.2003 11.2273 16.7514 11.6232 16.7514 12.1136V18.6136C16.7514 19.1041 17.2003 19.5 17.7565 19.5Z" fill="white"/>
</g>
<defs>
<clipPath id="clip0_4_270">
<rect width="29" height="26" fill="white"/>
</clipPath>
</defs>
</svg>
