<svg width="29" height="30" viewBox="0 0 29 30" fill="none" xmlns="http://www.w3.org/2000/svg">
<g clip-path="url(#clip0_1_23)">
<path d="M22.0181 0H7.08078C3.23236 0 0.0988731 3.25263 0.0988731 7.24737V16.8789C0.0988731 17.5342 0.608446 18.0632 1.23971 18.0632C1.87097 18.0632 2.38054 17.5342 2.38054 16.8789V7.24737C2.38054 4.55526 4.48728 2.36842 7.08078 2.36842H22.0181C24.6116 2.36842 26.7183 4.55526 26.7183 7.24737V22.7526C26.7183 25.4447 24.6116 27.6316 22.0181 27.6316H13.7889C13.1576 27.6316 12.648 28.1605 12.648 28.8158C12.648 29.4711 13.1576 30 13.7889 30H22.0181C25.8665 30 29 26.7474 29 22.7526V7.24737C29 3.25263 25.8665 0 22.0181 0Z" fill="white"/>
<path d="M19.2877 20.5263C21.3792 18.3553 21.9801 15.1263 20.8316 12.3C20.6871 11.9368 20.3753 11.6763 20.0026 11.5974C19.6299 11.5184 19.2421 11.6447 18.9759 11.9211L15.7967 15.2211L14.1844 13.5474L17.3635 10.2474C17.6297 9.97105 17.7514 9.56842 17.6753 9.18158C17.5993 8.79474 17.3483 8.47105 16.9984 8.32105C14.2756 7.12105 11.165 7.75263 9.07343 9.92368C7.17204 11.8974 6.49515 14.7553 7.26331 17.3842L1.00393 23.8737C0.357461 24.5447 0 25.4368 0 26.3842C0 27.3316 0.357461 28.2237 1.00393 28.8947C1.65041 29.5658 2.50983 29.9368 3.4225 29.9368C4.33517 29.9368 5.1946 29.5658 5.84107 28.8947L12.1004 22.3974C14.6331 23.1947 17.3863 22.4921 19.2877 20.5184V20.5263ZM10.9976 20.2026L4.22869 27.2289C3.79517 27.6789 3.04983 27.6789 2.61631 27.2289C2.40336 27.0079 2.28167 26.7079 2.28167 26.3921C2.28167 26.0763 2.40336 25.7763 2.61631 25.5553L9.38526 18.5289C9.7123 18.1895 9.81117 17.6763 9.62864 17.2263C8.83766 15.2921 9.25597 13.0816 10.6858 11.5974C11.6365 10.6105 12.8914 10.0895 14.1692 10.0895C14.2072 10.0895 14.2452 10.0895 14.2832 10.0895L11.7582 12.7105C11.3095 13.1763 11.3095 13.9263 11.7582 14.3842L14.983 17.7316C15.4317 18.1974 16.1542 18.1974 16.5953 17.7316L19.1204 15.1105C19.1508 16.4842 18.6488 17.8342 17.6753 18.8447C16.2455 20.3289 14.1159 20.7553 12.2526 19.9421C11.8266 19.7526 11.3323 19.8553 10.9976 20.1947V20.2026Z" fill="white"/>
</g>
<defs>
<clipPath id="clip0_1_23">
<rect width="29" height="30" fill="white"/>
</clipPath>
</defs>
</svg>
