<svg width="31" height="26" viewBox="0 0 31 26" fill="none" xmlns="http://www.w3.org/2000/svg">
<g clip-path="url(#clip0_44_3)">
<path d="M15.7868 3.07023C16.0415 3.07023 16.248 2.86072 16.248 2.60228C16.248 2.34383 16.0415 2.13432 15.7868 2.13432C15.5321 2.13432 15.3257 2.34383 15.3257 2.60228C15.3257 2.86072 15.5321 3.07023 15.7868 3.07023Z" fill="white"/>
<path d="M15.7868 8.777C16.0415 8.777 16.248 8.56749 16.248 8.30905C16.248 8.05061 16.0415 7.84109 15.7868 7.84109C15.5321 7.84109 15.3257 8.05061 15.3257 8.30905C15.3257 8.56749 15.5321 8.777 15.7868 8.777Z" fill="white"/>
<path d="M15.7868 4.46839C16.0415 4.46839 16.248 4.25888 16.248 4.00044C16.248 3.742 16.0415 3.53249 15.7868 3.53249C15.5321 3.53249 15.3257 3.742 15.3257 4.00044C15.3257 4.25888 15.5321 4.46839 15.7868 4.46839Z" fill="white"/>
<path d="M15.7868 5.87225C16.0415 5.87225 16.248 5.66274 16.248 5.40429C16.248 5.14585 16.0415 4.93634 15.7868 4.93634C15.5321 4.93634 15.3257 5.14585 15.3257 5.40429C15.3257 5.66274 15.5321 5.87225 15.7868 5.87225Z" fill="white"/>
<path d="M15.7868 6.3345C15.5337 6.3345 15.3257 6.54565 15.3257 6.80246C15.3257 7.05926 15.5337 7.27041 15.7868 7.27041C16.0399 7.27041 16.248 7.05926 16.248 6.80246C16.248 6.54565 16.0399 6.3345 15.7868 6.3345Z" fill="white"/>
<path d="M14.3921 2.44249L15.7812 1.03292L17.1704 2.44249C17.2547 2.52809 17.3616 2.56803 17.4684 2.56803C17.5753 2.56803 17.6822 2.52809 17.7665 2.44249C17.9296 2.27699 17.9296 2.00307 17.7665 1.83757L16.0793 0.125541C15.9162 -0.0399549 15.6462 -0.0399549 15.4831 0.125541L13.7959 1.83757C13.6328 2.00307 13.6328 2.27699 13.7959 2.44249C13.959 2.60798 14.229 2.60798 14.3921 2.44249Z" fill="white"/>
<path d="M2.5646 12.6861C2.31152 12.6861 2.10342 12.8973 2.10342 13.1541C2.10342 13.4109 2.31152 13.622 2.5646 13.622C2.81768 13.622 3.02578 13.4109 3.02578 13.1541C3.02578 12.8973 2.81768 12.6861 2.5646 12.6861Z" fill="white"/>
<path d="M7.72751 13.1541C7.72751 13.4109 7.9356 13.622 8.18868 13.622C8.44177 13.622 8.64986 13.4109 8.64986 13.1541C8.64986 12.8973 8.44177 12.6861 8.18868 12.6861C7.9356 12.6861 7.72751 12.8973 7.72751 13.1541Z" fill="white"/>
<path d="M3.9425 12.6861C3.68941 12.6861 3.48132 12.8973 3.48132 13.1541C3.48132 13.4109 3.68941 13.622 3.9425 13.622C4.19558 13.622 4.40367 13.4109 4.40367 13.1541C4.40367 12.8973 4.19558 12.6861 3.9425 12.6861Z" fill="white"/>
<path d="M4.86484 13.1541C4.86484 13.4109 5.07293 13.622 5.32601 13.622C5.5791 13.622 5.78719 13.4109 5.78719 13.1541C5.78719 12.8973 5.5791 12.6861 5.32601 12.6861C5.07293 12.6861 4.86484 12.8973 4.86484 13.1541Z" fill="white"/>
<path d="M6.24274 13.1541C6.24274 13.4109 6.45083 13.622 6.70391 13.622C6.957 13.622 7.16509 13.4109 7.16509 13.1541C7.16509 12.8973 6.957 12.6861 6.70391 12.6861C6.45083 12.6861 6.24274 12.8973 6.24274 13.1541Z" fill="white"/>
<path d="M1.01796 13.1598L2.40711 11.7502C2.57021 11.5847 2.57021 11.3108 2.40711 11.1453C2.24401 10.9798 1.97405 10.9798 1.81096 11.1453L0.123728 12.8573C-0.0393709 13.0228 -0.0393709 13.2967 0.123728 13.4622L1.81096 15.1743C1.89532 15.2599 2.00218 15.2998 2.10903 15.2998C2.21589 15.2998 2.32275 15.2599 2.40711 15.1743C2.57021 15.0088 2.57021 14.7349 2.40711 14.5694L1.01796 13.1598V13.1598Z" fill="white"/>
<path d="M28.9022 13.1655C28.9022 12.9087 28.6941 12.6975 28.441 12.6975C28.1879 12.6975 27.9799 12.9087 27.9799 13.1655C27.9799 13.4223 28.1879 13.6334 28.441 13.6334C28.6941 13.6334 28.9022 13.4223 28.9022 13.1655Z" fill="white"/>
<path d="M22.8169 12.7032C22.5639 12.7032 22.3558 12.9144 22.3558 13.1712C22.3558 13.428 22.5639 13.6392 22.8169 13.6392C23.07 13.6392 23.2781 13.428 23.2781 13.1712C23.2781 12.9144 23.07 12.7032 22.8169 12.7032Z" fill="white"/>
<path d="M27.0575 13.6334C27.3122 13.6334 27.5187 13.4239 27.5187 13.1655C27.5187 12.9071 27.3122 12.6975 27.0575 12.6975C26.8028 12.6975 26.5963 12.9071 26.5963 13.1655C26.5963 13.4239 26.8028 13.6334 27.0575 13.6334Z" fill="white"/>
<path d="M25.2184 13.1655C25.2184 13.4223 25.4265 13.6334 25.6796 13.6334C25.9327 13.6334 26.1408 13.4223 26.1408 13.1655C26.1408 12.9087 25.9327 12.6975 25.6796 12.6975C25.4265 12.6975 25.2184 12.9087 25.2184 13.1655Z" fill="white"/>
<path d="M23.8405 13.1655C23.8405 13.4223 24.0486 13.6334 24.3017 13.6334C24.5548 13.6334 24.7629 13.4223 24.7629 13.1655C24.7629 12.9087 24.5548 12.6975 24.3017 12.6975C24.0486 12.6975 23.8405 12.9087 23.8405 13.1655Z" fill="white"/>
<path d="M30.8819 12.8573L29.1947 11.1453C29.0316 10.9798 28.7616 10.9798 28.5985 11.1453C28.4354 11.3108 28.4354 11.5847 28.5985 11.7502L29.9877 13.1598L28.5985 14.5694C28.4354 14.7349 28.4354 15.0088 28.5985 15.1743C28.6829 15.2599 28.7897 15.2998 28.8966 15.2998C29.0035 15.2998 29.1103 15.2599 29.1947 15.1743L30.8819 13.4622C31.045 13.2967 31.045 13.0228 30.8819 12.8573V12.8573Z" fill="white"/>
<path d="M24.8135 10.7002H26.6188C25.5334 7.40738 22.4683 4.8907 18.5933 4.10887V5.86085C21.4953 6.53995 23.8068 8.34329 24.8135 10.7002V10.7002Z" fill="white"/>
<path d="M17.6934 20.7726C17.4684 20.8126 17.2716 20.9438 17.1422 21.1378L15.4775 23.6431L13.6722 21.0808C13.5484 20.9039 13.3572 20.7783 13.1435 20.7384C9.69032 20.065 6.97388 17.942 6.05716 15.2656H4.29681C5.19667 18.6839 8.38553 21.4346 12.4911 22.3477L14.8082 25.6405C14.9657 25.863 15.2244 26 15.4944 26H15.5056C15.7812 26 16.0399 25.8573 16.1918 25.6234L18.3402 22.3876C22.5301 21.5088 25.7809 18.7467 26.6976 15.2656H24.9372C24.0036 17.9934 21.2253 20.1277 17.6934 20.7726V20.7726Z" fill="white"/>
<path d="M12.9692 5.83231V4.08604C8.85795 4.84504 5.61285 7.37314 4.47116 10.7059H6.28774C7.35632 8.34329 9.88716 6.48859 12.9635 5.83802L12.9692 5.83231Z" fill="white"/>
</g>
<defs>
<clipPath id="clip0_44_3">
<rect width="31" height="26" fill="white"/>
</clipPath>
</defs>
</svg>
