<svg width="33" height="26" viewBox="0 0 33 26" fill="none" xmlns="http://www.w3.org/2000/svg">
<g clip-path="url(#clip0_4_266)">
<path d="M27.0185 9.18078C27.0389 8.41628 26.6991 7.67908 26.0941 7.13983L18.828 0.79853C17.6589 -0.218534 15.7829 -0.266316 14.5526 0.689315L6.87869 6.66884C6.23297 7.17396 5.84553 7.90433 5.82514 8.66884C5.80475 9.43334 6.1446 10.1705 6.74955 10.7098L9.29167 12.9282L6.87189 14.8122C6.22617 15.3173 5.83873 16.0477 5.81834 16.8122C5.79795 17.5767 6.13781 18.3139 6.74275 18.8531L14.0089 25.2013C14.6138 25.7337 15.4159 25.9999 16.2111 25.9999C16.952 25.9999 17.6929 25.7746 18.2775 25.3105L25.9514 19.3241C26.5971 18.819 26.9846 18.0886 27.005 17.3241C27.0253 16.5596 26.6855 15.8224 26.0805 15.2832L23.5384 13.0647L25.9582 11.1808C26.6039 10.6757 26.9914 9.94529 27.0118 9.18078H27.0185ZM24.7551 16.8327C24.8639 16.9282 24.9862 17.0784 24.9794 17.2695C24.9794 17.4265 24.8843 17.5835 24.7143 17.7132L17.0404 23.6996C16.5782 24.0613 15.7897 24.0408 15.3547 23.6654L8.08858 17.3173C7.97982 17.2217 7.85748 17.0716 7.86427 16.8804C7.86427 16.7234 7.95943 16.5665 8.12936 16.4368L10.8618 14.3071L14.0157 17.0579C14.6206 17.5903 15.4227 17.8566 16.2179 17.8566C16.9588 17.8566 17.6997 17.6313 18.2843 17.1671L21.9003 14.348L24.7483 16.8327H24.7551ZM24.7143 9.56304L17.0404 15.5494C16.5782 15.9112 15.7897 15.8907 15.3547 15.5153L8.09538 9.16713C7.98662 9.07157 7.86427 8.9214 7.87107 8.73027C7.87107 8.57327 7.96623 8.41628 8.13616 8.28658L15.8101 2.30706C16.0344 2.13641 16.3335 2.04768 16.6326 2.04768C16.952 2.04768 17.2715 2.15007 17.4958 2.34119L24.7619 8.68931C24.8707 8.78488 24.993 8.93505 24.9862 9.12618C24.9862 9.28317 24.8911 9.44017 24.7211 9.56986L24.7143 9.56304Z" fill="white"/>
<path d="M32.9456 20.041C32.7961 19.6997 32.3951 19.5427 32.0484 19.6928L31.2056 20.0614L31.5318 19.4812C31.5522 19.4471 31.5658 19.4061 31.5794 19.372C32.1707 17.686 32.4698 15.8908 32.4698 14.0273C32.4698 11.2218 31.7833 8.5529 30.4919 6.30034C30.3015 5.97269 29.8869 5.86348 29.5607 6.04778C29.2344 6.23891 29.1256 6.65529 29.3092 6.98293C30.4851 9.02389 31.1036 11.4607 31.1036 14.0273C31.1036 15.7133 30.8385 17.3379 30.3083 18.8601L30.1316 19.1809L29.8665 18.3072C29.7578 17.9454 29.3771 17.7406 29.0169 17.8498C28.6566 17.959 28.4527 18.3413 28.5615 18.7031L29.4111 21.5085C29.4655 21.6928 29.6014 21.8498 29.7782 21.9317C29.8665 21.9727 29.9617 21.9932 30.0636 21.9932C30.1656 21.9932 30.2472 21.9727 30.3355 21.9386L32.5786 20.942C32.9252 20.7918 33.0748 20.3891 32.9252 20.041H32.9456Z" fill="white"/>
<path d="M3.57519 6.44369C3.52081 6.25939 3.38487 6.10239 3.20814 6.02048C3.03142 5.93857 2.8275 5.93857 2.65078 6.02048L0.40773 7.01024C0.0610767 7.16041 -0.0884599 7.56314 0.0610767 7.91126C0.210613 8.25939 0.611643 8.40956 0.958296 8.25939L1.80114 7.89079L1.47488 8.47099C1.45449 8.50512 1.44089 8.53925 1.4273 8.58021C0.835948 10.2662 0.536875 12.0614 0.536875 13.9249C0.536875 16.7304 1.22338 19.3993 2.51484 21.6519C2.64398 21.8703 2.86829 21.9932 3.10618 21.9932C3.22174 21.9932 3.33729 21.9659 3.44604 21.9044C3.7723 21.7133 3.88106 21.2969 3.69753 20.9693C2.52163 18.9283 1.9031 16.4915 1.9031 13.9249C1.9031 12.2389 2.16818 10.6143 2.69836 9.09215L2.88188 8.77133L3.14697 9.64505C3.23533 9.93857 3.50721 10.1297 3.79949 10.1297C3.86746 10.1297 3.92864 10.1229 3.99661 10.1024C4.35685 9.99318 4.56077 9.61092 4.45201 9.24915L3.60237 6.44369H3.57519Z" fill="white"/>
</g>
<defs>
<clipPath id="clip0_4_266">
<rect width="33" height="26" fill="white"/>
</clipPath>
</defs>
</svg>
