<svg width="24" height="22" viewBox="0 0 24 22" fill="none" xmlns="http://www.w3.org/2000/svg">
<g clip-path="url(#clip0_4_274)">
<path d="M1.69297 0.345592C1.42054 0.0212332 0.992432 -0.084536 0.622703 0.0705922C0.246486 0.232772 0 0.620592 0 1.05777V20.1103C0 20.5475 0.246486 20.9353 0.622703 21.0975C0.739459 21.1469 0.856216 21.168 0.972973 21.168C1.23892 21.168 1.50486 21.0482 1.69297 20.8225L9.71676 11.2962C10.0541 10.8943 10.0541 10.2738 9.71676 9.86482L1.69297 0.345592ZM1.94595 17.3885V3.77957L7.68 10.5841L1.94595 17.3885Z" fill="white"/>
<path d="M23.3773 0.0705033C23.0076 -0.0846249 22.5795 0.0211443 22.307 0.338452L14.2832 9.86473C13.9459 10.2667 13.9459 10.8872 14.2832 11.2961L22.307 20.8224C22.4951 21.0481 22.7546 21.1679 23.027 21.1679C23.1438 21.1679 23.267 21.1468 23.3773 21.0974C23.7535 20.9423 24 20.5474 24 20.1102V1.05768C24 0.620503 23.7535 0.232683 23.3773 0.0705033ZM22.0541 17.3885L16.32 10.584L22.0541 3.77948V17.3885Z" fill="white"/>
<path d="M12 0.84615C12.1791 0.84615 12.3243 0.688302 12.3243 0.493586C12.3243 0.29887 12.1791 0.141022 12 0.141022C11.8209 0.141022 11.6757 0.29887 11.6757 0.493586C11.6757 0.688302 11.8209 0.84615 12 0.84615Z" fill="white"/>
<path d="M12 2.25641C12.1791 2.25641 12.3243 2.09856 12.3243 1.90385C12.3243 1.70913 12.1791 1.55128 12 1.55128C11.8209 1.55128 11.6757 1.70913 11.6757 1.90385C11.6757 2.09856 11.8209 2.25641 12 2.25641Z" fill="white"/>
<path d="M12 3.66666C12.1791 3.66666 12.3243 3.50881 12.3243 3.3141C12.3243 3.11938 12.1791 2.96153 12 2.96153C11.8209 2.96153 11.6757 3.11938 11.6757 3.3141C11.6757 3.50881 11.8209 3.66666 12 3.66666Z" fill="white"/>
<path d="M12 5.07692C12.1791 5.07692 12.3243 4.91908 12.3243 4.72436C12.3243 4.52964 12.1791 4.3718 12 4.3718C11.8209 4.3718 11.6757 4.52964 11.6757 4.72436C11.6757 4.91908 11.8209 5.07692 12 5.07692Z" fill="white"/>
<path d="M12 6.48717C12.1791 6.48717 12.3243 6.32932 12.3243 6.13461C12.3243 5.93989 12.1791 5.78204 12 5.78204C11.8209 5.78204 11.6757 5.93989 11.6757 6.13461C11.6757 6.32932 11.8209 6.48717 12 6.48717Z" fill="white"/>
<path d="M12 7.89743C12.1791 7.89743 12.3243 7.73959 12.3243 7.54487C12.3243 7.35015 12.1791 7.19231 12 7.19231C11.8209 7.19231 11.6757 7.35015 11.6757 7.54487C11.6757 7.73959 11.8209 7.89743 12 7.89743Z" fill="white"/>
<path d="M12 9.3077C12.1791 9.3077 12.3243 9.14985 12.3243 8.95513C12.3243 8.76042 12.1791 8.60257 12 8.60257C11.8209 8.60257 11.6757 8.76042 11.6757 8.95513C11.6757 9.14985 11.8209 9.3077 12 9.3077Z" fill="white"/>
<path d="M12 12.1282C12.1791 12.1282 12.3243 11.9704 12.3243 11.7756C12.3243 11.5809 12.1791 11.4231 12 11.4231C11.8209 11.4231 11.6757 11.5809 11.6757 11.7756C11.6757 11.9704 11.8209 12.1282 12 12.1282Z" fill="white"/>
<path d="M12 13.5385C12.1791 13.5385 12.3243 13.3806 12.3243 13.1859C12.3243 12.9912 12.1791 12.8333 12 12.8333C11.8209 12.8333 11.6757 12.9912 11.6757 13.1859C11.6757 13.3806 11.8209 13.5385 12 13.5385Z" fill="white"/>
<path d="M12 14.9487C12.1791 14.9487 12.3243 14.7909 12.3243 14.5962C12.3243 14.4014 12.1791 14.2436 12 14.2436C11.8209 14.2436 11.6757 14.4014 11.6757 14.5962C11.6757 14.7909 11.8209 14.9487 12 14.9487Z" fill="white"/>
<path d="M12 16.359C12.1791 16.359 12.3243 16.2011 12.3243 16.0064C12.3243 15.8117 12.1791 15.6538 12 15.6538C11.8209 15.6538 11.6757 15.8117 11.6757 16.0064C11.6757 16.2011 11.8209 16.359 12 16.359Z" fill="white"/>
<path d="M12 17.7692C12.1791 17.7692 12.3243 17.6114 12.3243 17.4167C12.3243 17.222 12.1791 17.0641 12 17.0641C11.8209 17.0641 11.6757 17.222 11.6757 17.4167C11.6757 17.6114 11.8209 17.7692 12 17.7692Z" fill="white"/>
<path d="M12 19.1795C12.1791 19.1795 12.3243 19.0216 12.3243 18.8269C12.3243 18.6322 12.1791 18.4744 12 18.4744C11.8209 18.4744 11.6757 18.6322 11.6757 18.8269C11.6757 19.0216 11.8209 19.1795 12 19.1795Z" fill="white"/>
<path d="M12 20.5897C12.1791 20.5897 12.3243 20.4319 12.3243 20.2372C12.3243 20.0425 12.1791 19.8846 12 19.8846C11.8209 19.8846 11.6757 20.0425 11.6757 20.2372C11.6757 20.4319 11.8209 20.5897 12 20.5897Z" fill="white"/>
<path d="M12 22C12.1791 22 12.3243 21.8422 12.3243 21.6474C12.3243 21.4527 12.1791 21.2949 12 21.2949C11.8209 21.2949 11.6757 21.4527 11.6757 21.6474C11.6757 21.8422 11.8209 22 12 22Z" fill="white"/>
<path d="M12 10.7179C12.1791 10.7179 12.3243 10.5601 12.3243 10.3654C12.3243 10.1707 12.1791 10.0128 12 10.0128C11.8209 10.0128 11.6757 10.1707 11.6757 10.3654C11.6757 10.5601 11.8209 10.7179 12 10.7179Z" fill="white"/>
</g>
<defs>
<clipPath id="clip0_4_274">
<rect width="24" height="22" fill="white"/>
</clipPath>
</defs>
</svg>
