<svg width="35" height="30" viewBox="0 0 35 30" fill="none" xmlns="http://www.w3.org/2000/svg">
<g clip-path="url(#clip0_1_17)">
<path d="M28.0389 10.9247C28.0156 10.8 28 10.6442 28 10.5195C28 4.72208 23.2867 0 17.5 0C11.7133 0 7 4.72208 7 10.5117C7 10.6364 6.98444 10.7922 6.96111 10.9169C3.08 11.1429 0 14.3766 0 18.3117C0 22.2468 3.31333 25.7143 7.38889 25.7143C7.7 25.7143 8.00333 25.6987 8.30667 25.6597C8.94444 25.5818 9.40333 24.9974 9.31778 24.3584C9.24 23.7195 8.64889 23.2597 8.01889 23.3455C7.81667 23.3688 7.60667 23.3844 7.38889 23.3844C4.60444 23.3844 2.33333 21.1091 2.33333 18.3195C2.33333 15.5299 4.60444 13.2545 7.38889 13.2545C8.55556 13.2545 9.33333 12.1558 9.33333 10.5273C9.33333 6.01558 12.9967 2.34545 17.5 2.34545C22.0033 2.34545 25.6667 6.01558 25.6667 10.5273C25.6667 12.1558 26.4444 13.2545 27.6111 13.2545C30.3956 13.2545 32.6667 15.5299 32.6667 18.3195C32.6667 21.1091 30.3956 23.3844 27.6111 23.3844C27.4011 23.3844 27.1911 23.3688 26.9811 23.3455C26.3433 23.2597 25.76 23.7195 25.6822 24.3584C25.6044 24.9974 26.0556 25.5818 26.6933 25.6597C26.9967 25.6987 27.3 25.7143 27.6111 25.7143C31.6867 25.7143 35 22.3948 35 18.3117C35 14.2286 31.92 11.1429 28.0389 10.9247Z" fill="white"/>
<path d="M18.3556 12.8416C18.1378 12.6078 17.8267 12.4675 17.5078 12.4675C17.1733 12.4831 16.8778 12.6 16.6522 12.8338L11.2078 18.6312C10.7645 19.0987 10.7878 19.839 11.2545 20.2831C11.48 20.4935 11.7678 20.6026 12.0556 20.6026C12.3667 20.6026 12.6778 20.4779 12.9033 20.2364L16.3333 16.5818V29.174C16.3333 29.8208 16.8545 30.3429 17.5 30.3429C18.1456 30.3429 18.6667 29.8208 18.6667 29.174V16.6052L22.05 20.2364C22.4933 20.7039 23.2245 20.7351 23.6989 20.2909C24.1733 19.8467 24.1967 19.1143 23.7533 18.639L18.3478 12.8416H18.3556Z" fill="white"/>
</g>
<defs>
<clipPath id="clip0_1_17">
<rect width="35" height="30" fill="white"/>
</clipPath>
</defs>
</svg>
