<svg width="19" height="19" viewBox="0 0 19 19" fill="none" xmlns="http://www.w3.org/2000/svg">
<g clip-path="url(#clip0_3_79)">
<path d="M15 19.0003H4C1.795 19.0003 0 17.2203 0 15.0337V0.744078C0 0.466416 0.155 0.208587 0.405 0.0846309C0.655 -0.0442835 0.955 -0.0194923 1.185 0.139172L4.465 2.46955C4.615 2.57863 5.11 2.87117 5.495 2.87117H15C17.205 2.87117 19 4.65118 19 6.83776V15.0387C19 17.2253 17.205 19.0053 15 19.0053V19.0003ZM1.5 2.19189V15.0387C1.5 16.4072 2.62 17.5178 4 17.5178H15C16.38 17.5178 17.5 16.4072 17.5 15.0387V6.83776C17.5 5.46929 16.38 4.35864 15 4.35864H5.495C4.555 4.35864 3.68 3.74382 3.585 3.66944L1.5 2.19189Z" fill="white"/>
</g>
<defs>
<clipPath id="clip0_3_79">
<rect width="19" height="19" fill="white"/>
</clipPath>
</defs>
</svg>
