<svg width="20" height="19" viewBox="0 0 20 19" fill="none" xmlns="http://www.w3.org/2000/svg">
<g clip-path="url(#clip0_3_81)">
<path d="M15.7282 19H4.2718C1.91795 19 0 17.1206 0 14.8141V7.10553C0 4.799 1.91795 2.9196 4.2718 2.9196H7.5641L9.3641 0.331658C9.50769 0.120603 9.76923 0 10.0103 0C10.2667 0 10.5077 0.135678 10.6462 0.346734L12.3282 2.9196H15.7231C18.0769 2.9196 19.9949 4.799 19.9949 7.10553V14.8141C19.9949 17.1206 18.0769 19 15.7231 19H15.7282ZM4.2718 4.42714C2.7641 4.42714 1.53846 5.62814 1.53846 7.10553V14.8141C1.53846 16.2915 2.7641 17.4925 4.2718 17.4925H15.7282C17.2359 17.4925 18.4615 16.2915 18.4615 14.8141V7.10553C18.4615 5.62814 17.2359 4.42714 15.7282 4.42714H11.9128C11.6513 4.42714 11.4051 4.29648 11.2667 4.0804L9.98462 2.1206L8.61026 4.09548C8.46667 4.30151 8.23077 4.42714 7.97436 4.42714H4.27692H4.2718Z" fill="white"/>
</g>
<defs>
<clipPath id="clip0_3_81">
<rect width="20" height="19" fill="white"/>
</clipPath>
</defs>
</svg>
