<svg width="22" height="24" viewBox="0 0 22 24" fill="none" xmlns="http://www.w3.org/2000/svg">
<path d="M11.0005 1C5.48597 1 1 5.20429 1 10.3726C1 14.7614 4.29012 18.5895 8.84472 19.5271L10.7463 22.4348C10.7463 22.4348 10.8932 22.688 11.0005 22.689C11.1063 22.689 11.2547 22.4348 11.2547 22.4348L13.2743 19.5016C17.7597 18.5239 21 14.7055 21 10.3721C21.0005 5.20429 16.5151 1 11.0005 1ZM13.0348 19.0334C12.9489 19.0506 12.8782 19.1111 12.8477 19.193L11.0005 21.9264L9.27639 19.2215C9.24639 19.1366 9.17318 19.0735 9.08471 19.0567C4.69484 18.2163 1.50895 14.5642 1.50895 10.3726C1.50895 5.48495 5.76713 1.50844 11.0005 1.50844C16.2339 1.50844 20.4916 5.48495 20.4916 10.3726C20.4921 14.5098 17.356 18.1522 13.0348 19.0334Z" fill="#414042" stroke="white"/>
</svg>
