<svg width="31" height="31" viewBox="0 0 31 31" fill="none" xmlns="http://www.w3.org/2000/svg">
<g clip-path="url(#clip0_1_20)">
<path d="M25.1392 0H5.85293C2.62672 0 0 2.62672 0 5.85293V25.1392C0 28.3654 2.62672 30.9921 5.85293 30.9921H25.1392C28.3654 30.9921 30.9921 28.3654 30.9921 25.1392V5.85293C30.9921 2.62672 28.3654 0 25.1392 0ZM5.85293 2.36641H25.1392C27.0639 2.36641 28.6257 3.92824 28.6257 5.85293V20.3196L25.3048 16.8883C23.2145 14.656 20.4537 15.6183 19.0654 16.8646L15.7603 20.1697C14.514 21.416 13.3466 20.4774 13.031 20.1697L11.9267 19.0654C10.2702 17.4089 7.56463 18.6947 7.257 18.8445C7.14656 18.8997 7.03613 18.9786 6.94936 19.0654L2.35852 23.6562V5.85293C2.35852 3.92824 3.92036 2.36641 5.84504 2.36641H5.85293ZM25.1392 28.6336H5.85293C4.4173 28.6336 3.18677 27.7659 2.65038 26.5196C2.82392 26.4644 2.98168 26.3776 3.11578 26.2435L8.47176 20.8875C9.08702 20.6272 9.97837 20.4616 10.2545 20.7377L11.3588 21.842C12.5814 23.0646 15.2081 24.0743 17.4405 21.842L20.6903 18.5842C20.856 18.4344 22.3468 17.188 23.601 18.5211L27.8684 22.9226C28.0814 23.1435 28.3575 23.2461 28.6336 23.2697V25.1392C28.6336 27.0639 27.0718 28.6257 25.1471 28.6257L25.1392 28.6336Z" fill="white"/>
<path d="M11.0906 15.5789C13.5674 15.5789 15.5789 13.5674 15.5789 11.0906C15.5789 8.61375 13.5674 6.60229 11.0906 6.60229C8.61374 6.60229 6.60229 8.61375 6.60229 11.0906C6.60229 13.5674 8.61374 15.5789 11.0906 15.5789ZM11.0906 8.96871C12.258 8.96871 13.2125 9.92316 13.2125 11.0906C13.2125 12.258 12.258 13.2125 11.0906 13.2125C9.92315 13.2125 8.9687 12.258 8.9687 11.0906C8.9687 9.92316 9.92315 8.96871 11.0906 8.96871Z" fill="white"/>
</g>
<defs>
<clipPath id="clip0_1_20">
<rect width="31" height="31" fill="white"/>
</clipPath>
</defs>
</svg>
